<svg xmlns="http://www.w3.org/2000/svg" viewBox="0 0 48 48" width="48" height="48" aria-hidden="true" focusable="false">
  <path fill="#EA4335" d="M24 9.5c3.54 0 6.7 1.22 9.19 3.6l6.84-6.84C35.9 2.43 30.47 0 24 0 14.62 0 6.51 5.38 2.56 13.22l7.98 6.19C12.46 13.03 17.77 9.5 24 9.5z"/>
  <path fill="#4285F4" d="M46.98 24.55c0-1.57-.14-3.08-.4-4.55H24v9.02h12.94c-.56 3.02-2.25 5.59-4.8 7.32l7.74 6.01c4.53-4.18 7.1-10.34 7.1-17.82z"/>
  <path fill="#FBBC05" d="M10.54 28.59A14.5 14.5 0 0 1 9.8 24c0-1.6.28-3.15.74-4.59l-7.98-6.19A23.98 23.98 0 0 0 0 24c0 3.87.93 7.53 2.56 10.78l7.98-6.19z"/>
  <path fill="#34A853" d="M24 48c6.48 0 11.93-2.14 15.9-5.82l-7.74-6.01c-2.15 1.45-4.9 2.3-8.16 2.3-6.23 0-11.54-3.53-13.46-8.88l-7.98 6.19C6.51 42.62 14.62 48 24 48z"/>
  <path fill="none" d="M0 0h48v48H0z"/>
</svg>
