{
	"asset":{
		"version":"2.0",
		"generator":""
	},
	"scenes":[{
		"nodes":[0,
		1]
	}],
	"nodes":[{
		"name":"RS Camera",
		"camera":0,
		"translation":[0.0,
		0.0,
		4.0],
		"rotation":[0.0,
		0.0,
		0.0,
		-1.0],
		"scale":[1.0,
		1.0,
		1.0]
	},
	{
		"name":"Logo",
		"mesh":0,
		"translation":[0.0,
		0.0,
		0.0],
		"rotation":[0.40555042028427126,
		0.17129690945148469,
		-0.057422444224357608,
		-0.896040678024292],
		"scale":[1.0,
		1.0,
		1.0]
	}],
	"meshes":[{
		"name":"Logo",
		"primitives":[{
			"attributes":{
				"POSITION":1,
				"NORMAL":2,
				"TEXCOORD_0":3
			},
			"indices":0
		}]
	}],
	"cameras":[{
		"type":"perspective",
		"perspective":{
			"znear":0.009999999776482582,
			"zfar":10000000000.0,
			"aspectRatio":1.0,
			"yfov":0.19933730363845826
		}
	}],
	"accessors":[{
		"bufferView":0,
		"type":"SCALAR",
		"componentType":5123,
		"count":21120,
		"min":[0],
		"byteOffset":0,
		"max":[21119]
	},
	{
		"bufferView":1,
		"type":"VEC3",
		"componentType":5126,
		"count":21120,
		"min":[-0.2596358060836792,
		-0.2596358060836792,
		-0.019999999552965165],
		"byteOffset":0,
		"max":[0.2596358060836792,
		0.2596358060836792,
		0.019999999552965165]
	},
	{
		"bufferView":1,
		"type":"VEC3",
		"componentType":5126,
		"count":21120,
		"min":[-0.9954346418380737,
		-0.9954346418380737,
		-1.0],
		"byteOffset":12,
		"max":[0.9954346418380737,
		0.9954346418380737,
		1.0]
	},
	{
		"bufferView":1,
		"type":"VEC2",
		"componentType":5126,
		"count":21120,
		"min":[0.0011653825640678406,
		0.0011653825640678406],
		"byteOffset":24,
		"max":[0.9988346099853516,
		0.9609161615371704]
	}],
	"bufferViews":[{
		"buffer":0,
		"byteOffset":0,
		"byteLength":42240,
		"target":34963
	},
	{
		"buffer":0,
		"byteOffset":42240,
		"byteLength":675840,
		"target":34962,
		"byteStride":32
	}],
	"buffers":[{
		"uri":"data:application/octet-stream;base64,",
		"byteLength":718080
	}]
}