{
	"asset":{
		"version":"2.0",
		"generator":""
	},
	"scenes":[{
		"nodes":[0,
		1]
	}],
	"nodes":[{
		"name":"RS Camera",
		"camera":0,
		"translation":[0.0,
		0.0,
		4.0],
		"rotation":[0.0,
		0.0,
		0.0,
		-1.0],
		"scale":[1.0,
		1.0,
		1.0]
	},
	{
		"name":"Saw small",
		"mesh":0,
		"translation":[-9.50318151376341e-25,
		5.019961335445506e-24,
		-1.2510240398375385e-24],
		"rotation":[0.40555042028427126,
		0.17129690945148469,
		-0.057422444224357608,
		-0.896040678024292],
		"scale":[1.0,
		1.0,
		1.0]
	}],
	"meshes":[{
		"name":"Saw small",
		"primitives":[{
			"attributes":{
				"POSITION":1,
				"NORMAL":2,
				"TEXCOORD_0":3
			},
			"indices":0
		}]
	}],
	"cameras":[{
		"type":"perspective",
		"perspective":{
			"znear":0.009999999776482582,
			"zfar":10000000000.0,
			"aspectRatio":1.0,
			"yfov":0.19933730363845826
		}
	}],
	"accessors":[{
		"bufferView":0,
		"type":"SCALAR",
		"componentType":5123,
		"count":11196,
		"min":[0],
		"byteOffset":0,
		"max":[11195]
	},
	{
		"bufferView":1,
		"type":"VEC3",
		"componentType":5126,
		"count":11196,
		"min":[-0.2433631271123886,
		-0.24283216893672944,
		-0.019999999552965165],
		"byteOffset":0,
		"max":[0.2433631271123886,
		0.24283216893672944,
		0.019999999552965165]
	},
	{
		"bufferView":1,
		"type":"VEC3",
		"componentType":5126,
		"count":11196,
		"min":[-0.9999499917030335,
		-0.9999287724494934,
		-1.0],
		"byteOffset":12,
		"max":[0.999941885471344,
		0.9999381899833679,
		1.0]
	},
	{
		"bufferView":1,
		"type":"VEC2",
		"componentType":5126,
		"count":11196,
		"min":[-0.0020134509541094305,
		-0.002026443835347891],
		"byteOffset":24,
		"max":[1.0020191669464112,
		0.9998438358306885]
	}],
	"bufferViews":[{
		"buffer":0,
		"byteOffset":0,
		"byteLength":22392,
		"target":34963
	},
	{
		"buffer":0,
		"byteOffset":22392,
		"byteLength":358272,
		"target":34962,
		"byteStride":32
	}],
	"buffers":[{
		"uri":"data:application/octet-stream;base64,",
		"byteLength":380664
	}]
}