{
	"asset":{
		"version":"2.0",
		"generator":""
	},
	"scenes":[{
		"nodes":[0,
		1,
		2,
		3]
	}],
	"bufferViews":[{
		"buffer":0,
		"byteOffset":0,
		"byteLength":9616
	},
	{
		"buffer":0,
		"byteOffset":9616,
		"byteLength":12020
	},
	{
		"buffer":1,
		"byteOffset":0,
		"byteLength":9616
	},
	{
		"buffer":1,
		"byteOffset":9616,
		"byteLength":12020
	},
	{
		"buffer":2,
		"byteOffset":0,
		"byteLength":12384,
		"target":34963
	},
	{
		"buffer":2,
		"byteOffset":12384,
		"byteLength":198144,
		"target":34962,
		"byteStride":32
	},
	{
		"buffer":3,
		"byteOffset":0,
		"byteLength":9616
	},
	{
		"buffer":3,
		"byteOffset":9616,
		"byteLength":12020
	},
	{
		"buffer":4,
		"byteOffset":0,
		"byteLength":6144,
		"target":34963
	},
	{
		"buffer":4,
		"byteOffset":6144,
		"byteLength":98304,
		"target":34962,
		"byteStride":32
	},
	{
		"buffer":5,
		"byteOffset":0,
		"byteLength":12020
	},
	{
		"buffer":6,
		"byteOffset":0,
		"byteLength":6144,
		"target":34963
	},
	{
		"buffer":6,
		"byteOffset":6144,
		"byteLength":98304,
		"target":34962,
		"byteStride":32
	},
	{
		"buffer":7,
		"byteOffset":0,
		"byteLength":12020
	},
	{
		"buffer":8,
		"byteOffset":0,
		"byteLength":648,
		"target":34963
	},
	{
		"buffer":8,
		"byteOffset":648,
		"byteLength":10368,
		"target":34962,
		"byteStride":32
	},
	{
		"buffer":9,
		"byteOffset":0,
		"byteLength":648,
		"target":34963
	},
	{
		"buffer":9,
		"byteOffset":648,
		"byteLength":10368,
		"target":34962,
		"byteStride":32
	},
	{
		"buffer":10,
		"byteOffset":0,
		"byteLength":648,
		"target":34963
	},
	{
		"buffer":10,
		"byteOffset":648,
		"byteLength":10368,
		"target":34962,
		"byteStride":32
	}],
	"nodes":[{
		"name":"RS Camera",
		"camera":0,
		"translation":[0.0,
		0.0,
		4.0],
		"rotation":[0.0,
		0.0,
		0.0,
		-1.0],
		"scale":[1.0,
		1.0,
		1.0]
	},
	{
		"name":"Orbit-2",
		"translation":[-1.9721593628006766e-23,
		-0.005278886295855045,
		8.424525652476539e-24],
		"rotation":[0.309536874294281,
		-0.5625497102737427,
		0.02605929784476757,
		0.7661890387535095],
		"scale":[1.0,
		1.0,
		1.0],
		"children":[4]
	},
	{
		"name":"Orbit-1",
		"translation":[-2.5410987849649159e-23,
		2.0646427332017103e-23,
		1.2705493924824579e-23],
		"rotation":[0.18254093825817109,
		0.03748149797320366,
		0.20880365371704102,
		0.9600390791893005],
		"scale":[1.0,
		1.0,
		1.0],
		"children":[5]
	},
	{
		"name":"Star",
		"mesh":0,
		"translation":[4.356584426545851e-8,
		2.608132554371423e-8,
		-2.9044150196000375e-8],
		"rotation":[0.15393991768360139,
		-0.30441784858703616,
		-0.05280748009681702,
		0.9385327100753784],
		"scale":[1.0,
		1.0,
		1.0]
	},
	{
		"name":"Torus",
		"mesh":1,
		"translation":[5.850075327274598e-24,
		-1.8637367422652903e-24,
		-1.6311042251135558e-24],
		"rotation":[0.0,
		-5.665538686387998e-16,
		0.0,
		1.0],
		"scale":[1.0,
		1.0,
		1.0],
		"children":[6]
	},
	{
		"name":"Torus",
		"mesh":2,
		"translation":[0.0,
		0.0,
		0.0],
		"rotation":[-1.6653345369377349e-16,
		5.665538686387998e-16,
		-1.2246468525851679e-16,
		-1.0],
		"scale":[1.0,
		1.0,
		1.0],
		"children":[7,
		8]
	},
	{
		"name":"Sphere.2",
		"mesh":3,
		"translation":[0.07432334870100022,
		6.217248964370656e-17,
		0.11710596829652786],
		"rotation":[0.13160264492034913,
		-0.19780346751213075,
		0.10248226672410965,
		-0.9659461379051209],
		"scale":[1.0,
		1.0,
		1.0]
	},
	{
		"name":"Sphere.1",
		"mesh":4,
		"translation":[-0.2064456194639206,
		-9.858780585726333e-16,
		-0.11227289587259293],
		"rotation":[2.7365138425570006e-16,
		-0.9691470265388489,
		-1.0759693298755479e-15,
		-0.2464832365512848],
		"scale":[1.0,
		1.0,
		1.0]
	},
	{
		"name":"Sphere",
		"mesh":5,
		"translation":[0.23499999940395356,
		-2.775557602921922e-18,
		1.776356799695581e-17],
		"rotation":[1.942890293094024e-16,
		0.0,
		0.0,
		-1.0],
		"scale":[1.0,
		1.0,
		1.0]
	}],
	"meshes":[{
		"name":"Star",
		"primitives":[{
			"attributes":{
				"POSITION":9,
				"NORMAL":10,
				"TEXCOORD_0":11
			},
			"indices":8
		}]
	},
	{
		"name":"Torus",
		"primitives":[{
			"attributes":{
				"POSITION":17,
				"NORMAL":18,
				"TEXCOORD_0":19
			},
			"indices":16
		}]
	},
	{
		"name":"Torus",
		"primitives":[{
			"attributes":{
				"POSITION":23,
				"NORMAL":24,
				"TEXCOORD_0":25
			},
			"indices":22
		}]
	},
	{
		"name":"Sphere.2",
		"primitives":[{
			"attributes":{
				"POSITION":29,
				"NORMAL":30,
				"TEXCOORD_0":31
			},
			"indices":28
		}]
	},
	{
		"name":"Sphere.1",
		"primitives":[{
			"attributes":{
				"POSITION":33,
				"NORMAL":34,
				"TEXCOORD_0":35
			},
			"indices":32
		}]
	},
	{
		"name":"Sphere",
		"primitives":[{
			"attributes":{
				"POSITION":37,
				"NORMAL":38,
				"TEXCOORD_0":39
			},
			"indices":36
		}]
	}],
	"cameras":[{
		"type":"perspective",
		"perspective":{
			"znear":0.009999999776482582,
			"zfar":10000000000.0,
			"aspectRatio":1.0,
			"yfov":0.19933730363845826
		}
	}],
	"accessors":[{
		"bufferView":0,
		"type":"SCALAR",
		"componentType":5126,
		"count":601,
		"byteOffset":0,
		"min":[0.0],
		"max":[20.0]
	},
	{
		"bufferView":0,
		"type":"VEC3",
		"componentType":5126,
		"count":601,
		"byteOffset":2404,
		"min":[-2.9646153280118259e-23,
		-0.01563361845910549,
		8.334680706259107e-24],
		"max":[-2.5420234088319256e-25,
		2.2764010836112557e-23,
		8.470329283216386e-24]
	},
	{
		"bufferView":1,
		"type":"SCALAR",
		"componentType":5126,
		"count":601,
		"byteOffset":0,
		"min":[0.0],
		"max":[20.0]
	},
	{
		"bufferView":1,
		"type":"VEC4",
		"componentType":5126,
		"count":601,
		"byteOffset":2404,
		"min":[0.23290501534938813,
		-0.5626081824302673,
		0.024626489728689195,
		0.7613803148269653],
		"max":[0.3212226927280426,
		-0.555617094039917,
		0.04007313773036003,
		0.7971442937850952]
	},
	{
		"bufferView":2,
		"type":"SCALAR",
		"componentType":5126,
		"count":601,
		"byteOffset":0,
		"min":[0.0],
		"max":[20.0]
	},
	{
		"bufferView":2,
		"type":"VEC3",
		"componentType":5126,
		"count":601,
		"byteOffset":2404,
		"min":[-2.5410987849649159e-23,
		-0.01563361845910549,
		1.2502021453819113e-23],
		"max":[-3.813035113247888e-25,
		2.0646427332017103e-23,
		1.2705493924824579e-23]
	},
	{
		"bufferView":3,
		"type":"SCALAR",
		"componentType":5126,
		"count":601,
		"byteOffset":0,
		"min":[0.0],
		"max":[20.0]
	},
	{
		"bufferView":3,
		"type":"VEC4",
		"componentType":5126,
		"count":601,
		"byteOffset":2404,
		"min":[0.15665902197360993,
		0.01674070581793785,
		0.19504359364509583,
		0.942566990852356],
		"max":[0.2353873997926712,
		0.04600463807582855,
		0.23638945817947389,
		0.9671088457107544]
	},
	{
		"bufferView":4,
		"type":"SCALAR",
		"componentType":5123,
		"count":6192,
		"byteOffset":0,
		"min":[0],
		"max":[6191]
	},
	{
		"bufferView":5,
		"type":"VEC3",
		"componentType":5126,
		"count":6192,
		"byteOffset":0,
		"min":[-0.22399480640888215,
		-0.1736728847026825,
		-0.014999999664723874],
		"max":[0.22399480640888215,
		0.1736728847026825,
		0.014999999664723874]
	},
	{
		"bufferView":5,
		"type":"VEC3",
		"componentType":5126,
		"count":6192,
		"byteOffset":12,
		"min":[-1.0,
		-1.0,
		-1.0],
		"max":[1.0,
		1.0,
		1.0]
	},
	{
		"bufferView":5,
		"type":"VEC2",
		"componentType":5126,
		"count":6192,
		"byteOffset":24,
		"min":[0.0013085509417578579,
		0.001308550825342536],
		"max":[0.9930937886238098,
		0.9986914396286011]
	},
	{
		"bufferView":6,
		"type":"SCALAR",
		"componentType":5126,
		"count":601,
		"byteOffset":0,
		"min":[0.0],
		"max":[20.0]
	},
	{
		"bufferView":6,
		"type":"VEC3",
		"componentType":5126,
		"count":601,
		"byteOffset":2404,
		"min":[-0.00008293902646983042,
		-0.01241558138281107,
		-0.004787749610841274],
		"max":[4.356584426545851e-8,
		2.608132554371423e-8,
		-2.9044150196000375e-8]
	},
	{
		"bufferView":7,
		"type":"SCALAR",
		"componentType":5126,
		"count":601,
		"byteOffset":0,
		"min":[0.0],
		"max":[20.0]
	},
	{
		"bufferView":7,
		"type":"VEC4",
		"componentType":5126,
		"count":601,
		"byteOffset":2404,
		"min":[0.14873795211315156,
		-0.4164286255836487,
		-0.07239775359630585,
		0.8939926028251648],
		"max":[0.15964888036251069,
		-0.241988405585289,
		-0.04332038015127182,
		0.9560738205909729]
	},
	{
		"bufferView":8,
		"type":"SCALAR",
		"componentType":5123,
		"count":3072,
		"byteOffset":0,
		"min":[0],
		"max":[3071]
	},
	{
		"bufferView":9,
		"type":"VEC3",
		"componentType":5126,
		"count":3072,
		"byteOffset":0,
		"min":[-0.1394333392381668,
		-0.0006500000017695129,
		-0.1394333392381668],
		"max":[0.1394333392381668,
		0.0006500000017695129,
		0.1394333392381668]
	},
	{
		"bufferView":9,
		"type":"VEC3",
		"componentType":5126,
		"count":3072,
		"byteOffset":12,
		"min":[-0.9237755537033081,
		-0.9238694310188294,
		-0.9237755537033081],
		"max":[0.9237755537033081,
		0.9238694310188294,
		0.9237755537033081]
	},
	{
		"bufferView":9,
		"type":"VEC2",
		"componentType":5126,
		"count":3072,
		"byteOffset":24,
		"min":[0.0,
		0.0],
		"max":[1.0,
		1.0]
	},
	{
		"bufferView":10,
		"type":"SCALAR",
		"componentType":5126,
		"count":601,
		"byteOffset":0,
		"min":[0.0],
		"max":[20.0]
	},
	{
		"bufferView":10,
		"type":"VEC4",
		"componentType":5126,
		"count":601,
		"byteOffset":2404,
		"min":[0.0,
		-0.999996542930603,
		-2.981559443782089e-9,
		-1.0],
		"max":[6.918419170887091e-9,
		-2.498001805406602e-16,
		3.159568606747598e-9,
		1.0]
	},
	{
		"bufferView":11,
		"type":"SCALAR",
		"componentType":5123,
		"count":3072,
		"byteOffset":0,
		"min":[0],
		"max":[3071]
	},
	{
		"bufferView":12,
		"type":"VEC3",
		"componentType":5126,
		"count":3072,
		"byteOffset":0,
		"min":[-0.23565000295639039,
		-0.0006500000017695129,
		-0.23565000295639039],
		"max":[0.23565000295639039,
		0.0006500000017695129,
		0.23565000295639039]
	},
	{
		"bufferView":12,
		"type":"VEC3",
		"componentType":5126,
		"count":3072,
		"byteOffset":12,
		"min":[-0.9237755537033081,
		-0.9238694310188294,
		-0.9237755537033081],
		"max":[0.9237755537033081,
		0.9238694310188294,
		0.9237755537033081]
	},
	{
		"bufferView":12,
		"type":"VEC2",
		"componentType":5126,
		"count":3072,
		"byteOffset":24,
		"min":[0.0,
		0.0],
		"max":[1.0,
		1.0]
	},
	{
		"bufferView":13,
		"type":"SCALAR",
		"componentType":5126,
		"count":601,
		"byteOffset":0,
		"min":[0.0],
		"max":[20.0]
	},
	{
		"bufferView":13,
		"type":"VEC4",
		"componentType":5126,
		"count":601,
		"byteOffset":2404,
		"min":[-1.6653345369377349e-16,
		-2.039446552225381e-32,
		-1.0282954043816517e-8,
		-1.0],
		"max":[1.0205681633124187e-8,
		1.0,
		7.2877677226301788e-9,
		1.0]
	},
	{
		"bufferView":14,
		"type":"SCALAR",
		"componentType":5123,
		"count":324,
		"byteOffset":0,
		"min":[0],
		"max":[323]
	},
	{
		"bufferView":15,
		"type":"VEC3",
		"componentType":5126,
		"count":324,
		"byteOffset":0,
		"min":[-0.005427204072475433,
		-0.005427204072475433,
		-0.005427204072475433],
		"max":[0.005427204072475433,
		0.005427204072475433,
		0.005427204072475433]
	},
	{
		"bufferView":15,
		"type":"VEC3",
		"componentType":5126,
		"count":324,
		"byteOffset":12,
		"min":[-0.9366561770439148,
		-0.9366561770439148,
		-0.9366561770439148],
		"max":[0.9366561770439148,
		0.9366561770439148,
		0.9366561770439148]
	},
	{
		"bufferView":15,
		"type":"VEC2",
		"componentType":5126,
		"count":324,
		"byteOffset":24,
		"min":[0.0,
		0.0],
		"max":[1.0,
		1.0]
	},
	{
		"bufferView":16,
		"type":"SCALAR",
		"componentType":5123,
		"count":324,
		"byteOffset":0,
		"min":[0],
		"max":[323]
	},
	{
		"bufferView":17,
		"type":"VEC3",
		"componentType":5126,
		"count":324,
		"byteOffset":0,
		"min":[-0.0036181360483169557,
		-0.0036181360483169557,
		-0.0036181360483169557],
		"max":[0.0036181360483169557,
		0.0036181360483169557,
		0.0036181360483169557]
	},
	{
		"bufferView":17,
		"type":"VEC3",
		"componentType":5126,
		"count":324,
		"byteOffset":12,
		"min":[-0.9366561770439148,
		-0.9366561770439148,
		-0.9366561770439148],
		"max":[0.9366561770439148,
		0.9366561770439148,
		0.9366561770439148]
	},
	{
		"bufferView":17,
		"type":"VEC2",
		"componentType":5126,
		"count":324,
		"byteOffset":24,
		"min":[0.0,
		0.0],
		"max":[1.0,
		1.0]
	},
	{
		"bufferView":18,
		"type":"SCALAR",
		"componentType":5123,
		"count":324,
		"byteOffset":0,
		"min":[0],
		"max":[323]
	},
	{
		"bufferView":19,
		"type":"VEC3",
		"componentType":5126,
		"count":324,
		"byteOffset":0,
		"min":[-0.007236272096633911,
		-0.007236272096633911,
		-0.007236272096633911],
		"max":[0.007236272096633911,
		0.007236272096633911,
		0.007236272096633911]
	},
	{
		"bufferView":19,
		"type":"VEC3",
		"componentType":5126,
		"count":324,
		"byteOffset":12,
		"min":[-0.9366561770439148,
		-0.9366561770439148,
		-0.9366561770439148],
		"max":[0.9366561770439148,
		0.9366561770439148,
		0.9366561770439148]
	},
	{
		"bufferView":19,
		"type":"VEC2",
		"componentType":5126,
		"count":324,
		"byteOffset":24,
		"min":[0.0,
		0.0],
		"max":[1.0,
		1.0]
	}],
	"buffers":[{
		"uri":"data:application/octet-stream;base64,",
		"byteLength":21636
	},
	{
		"uri":"data:application/octet-stream;base64,",
		"byteLength":21636
	},
	{
		"uri":"data:application/octet-stream;base64,",
		"byteLength":210528
	},
	{
		"uri":"data:application/octet-stream;base64,",
		"byteLength":21636
	},
	{
		"uri":"data:application/octet-stream;base64,",
		"byteLength":104448
	},
	{
		"uri":"data:application/octet-stream;base64,",
		"byteLength":12020
	},
	{
		"uri":"data:application/octet-stream;base64,",
		"byteLength":104448
	},
	{
		"uri":"data:application/octet-stream;base64,",
		"byteLength":12020
	},
	{
		"uri":"data:application/octet-stream;base64,",
		"byteLength":11016
	},
	{
		"uri":"data:application/octet-stream;base64,",
		"byteLength":11016
	},
	{
		"uri":"data:application/octet-stream;base64,",
		"byteLength":11016
	}],
	"animations":[{
		"samplers":[{
			"output":1,
			"input":0,
			"interpolation":"LINEAR"
		},
		{
			"output":3,
			"input":2,
			"interpolation":"LINEAR"
		},
		{
			"output":5,
			"input":4,
			"interpolation":"LINEAR"
		},
		{
			"output":7,
			"input":6,
			"interpolation":"LINEAR"
		},
		{
			"output":13,
			"input":12,
			"interpolation":"LINEAR"
		},
		{
			"output":15,
			"input":14,
			"interpolation":"LINEAR"
		},
		{
			"output":21,
			"input":20,
			"interpolation":"LINEAR"
		},
		{
			"output":27,
			"input":26,
			"interpolation":"LINEAR"
		}],
		"channels":[{
			"sampler":0,
			"target":{
				"node":1,
				"path":"translation"
			}
		},
		{
			"sampler":1,
			"target":{
				"node":1,
				"path":"rotation"
			}
		},
		{
			"sampler":2,
			"target":{
				"node":2,
				"path":"translation"
			}
		},
		{
			"sampler":3,
			"target":{
				"node":2,
				"path":"rotation"
			}
		},
		{
			"sampler":4,
			"target":{
				"node":3,
				"path":"translation"
			}
		},
		{
			"sampler":5,
			"target":{
				"node":3,
				"path":"rotation"
			}
		},
		{
			"sampler":6,
			"target":{
				"node":4,
				"path":"rotation"
			}
		},
		{
			"sampler":7,
			"target":{
				"node":5,
				"path":"rotation"
			}
		}]
	}]
}